<svg width="188" height="10" fill="none" xmlns="http://www.w3.org/2000/svg"><path d="M34.481 2.012C43.718.881 49.962.45 59.805.266 66.911.133 87.951.222 94.061.411c2.425.075 7.512.229 11.305.341 16.758.497 21.634.762 30.525 1.658 1.057.107 2.379.23 2.939.275.56.044 1.933.168 3.052.275 1.12.107 3.511.325 5.314.483 1.803.16 3.94.355 4.748.436 1.712.17 5.911.536 13.114 1.141 1.43.12 3.243.284 4.028.363.786.08 2.617.233 4.07.342 5.282.395 7.641.657 12.522 1.387 1.663.249 2.056.478 2.278 1.332.185.712-.187.874-1.582.687-1.314-.176-4.397-.39-8.278-.574-1.596-.076-2.977-.166-3.068-.2-.091-.035-1.448-.16-3.015-.278-1.567-.118-2.984-.244-3.149-.28-.166-.038-1.166-.128-2.223-.203-1.902-.133-4.776-.373-9.157-.765-1.244-.111-3.889-.33-5.879-.485-1.99-.155-4.33-.344-5.201-.42-.87-.075-3.108-.23-4.974-.344-16.093-.986-24.439-1.146-64.418-1.232-22.15-.048-27.372-.093-27.52-.24-.1-.098-.11-.222-.021-.274.594-.352 11.5-.791 20.17-.811 2.425-.006 4.816-.055 5.314-.109l.904-.098-1.017-.189c-1.824-.338-25.424-.128-29.847.267-2.827.252-7.674.382-9.942.266-1.83-.093-2.203-.154-2.557-.421-.52-.393-.4-.437 1.985-.729ZM31.043 4.473c1.218-.125 3.456-.306 4.974-.402 1.518-.096 3.635-.183 4.704-.193 1.646-.016 2.003.021 2.332.244.508.342.311.403-1.83.569-.972.075-2.072.168-2.446.207-.373.039-2.153.17-3.956.292-1.804.121-3.991.272-4.862.334-.87.063-2.557.118-3.747.122-1.425.006-3.666.173-6.557.49-5.538.607-5.054.547-12.985 1.588a57.711 57.711 0 0 1-4.465.377C.309 8.171 0 8.151 0 7.968c0-.212.324-.31 2.704-.813 1.493-.317 5.225-.818 9.054-1.216 1.554-.162 3.64-.385 4.635-.495 2.652-.294 6.05-.505 8.126-.504 1.815 0 2.315-.036 6.524-.467Z" fill="#97F43B"/></svg>