<svg width="183" height="6" fill="none" xmlns="http://www.w3.org/2000/svg"><path d="M52.688.321C54.936.23 59.606.111 63.066.06 70.804-.06 87.042.01 92.417.186c2.19.072 4.785.124 5.766.117 16.22-.125 30.559-.14 34.278-.036 2.421.067 7.893.17 12.159.227 7.368.1 13.706.211 25.263.445 8.391.17 12.597.45 13.091.87.165.14-.492 1.467-.813 1.644-.248.136-1.039.192-6.512.461-2.734.135-11.75.135-15.619 0a825.237 825.237 0 0 0-7.967-.216c-2.71-.06-7.757-.186-11.216-.278-3.46-.092-8.271-.217-10.693-.277-2.421-.06-5.912-.157-7.757-.215-3.186-.1-11.003-.314-20.441-.559a426.987 426.987 0 0 1-7.023-.239c-3.338-.156-16.466-.149-21.49.012l-8.648.277c-2.738.088-5.057.185-5.152.216-.332.108-10.498.424-11.252.35-1.155-.114-.917-.422.42-.543 1.645-.149 1.764-.216.523-.294-1.155-.073-5.169.011-10.494.221-3.643.144-5.38.142-5.553-.005-.346-.294 1.473-.794 4.516-1.242C39.05.94 43.409.657 46.608.552c1.096-.035 3.832-.139 6.08-.23ZM28.578 3.654c2.028-.206 7.646-.704 8.596-.762 1.271-.077 3.485-.083 4.175-.01 1.397.147.123.478-2.708.704-.75.06-2.212.183-3.25.274-4.539.398-6.493.522-9.643.608-1.845.05-4.534.196-5.975.324-5.093.45-9.588.803-14.152 1.11-1.906.127-5.16.132-5.535.007-.74-.247 3.436-.859 7.212-1.056a249.34 249.34 0 0 0 3.46-.222c1.21-.085 3.003-.209 3.983-.274l3.434-.23c.909-.062 3.267-.158 5.241-.213 1.974-.055 4.297-.172 5.162-.26Z" fill="#E5F43B"/></svg>