<svg width="153" height="7" fill="none" xmlns="http://www.w3.org/2000/svg"><path d="M116.006 1.31c3.824-.153 6.986-.325 7.026-.384.04-.058 4.368-.105 9.618-.104 10.979.003 15.902.36 17.9 1.3 1.24.585 1.882 1.42 1.469 1.912-.574.684-1.823.8-8.708.813-7.102.014-15.063.205-30.223.726-4.392.15-13.356.39-19.92.533-6.564.143-13.905.37-16.314.507-5.666.32-30.86.32-37.521 0-14.393-.691-16.136-.815-16.528-1.179-.616-.57-.48-1.05.343-1.21 1.984-.383 15.137-.571 26.488-.377 7.534.128 14.866.12 18.374-.023 14.011-.565 18.024-.76 20.607-.998 1.511-.14 5.26-.366 8.329-.503 3.069-.137 7.049-.359 8.843-.493 1.795-.134 6.392-.369 10.217-.52ZM.985 4.217c.219-.075.707-.24 1.084-.366.378-.127 2.696-.183 5.152-.124 6.856.163 7.063.165 9.445.07 1.6-.065 2.341.001 2.619.233 1.063.887.063 1.335-3.343 1.497-1.953.093-3.014.04-3.55-.18-.625-.256-1.612-.232-5.475.134-5.2.493-6.18.403-6.275-.573-.04-.408.05-.591.343-.691Z" fill="#E5F43B"/></svg>