<svg width="113" height="12" fill="none" xmlns="http://www.w3.org/2000/svg"><path d="M61.535.674c.1-.06 5.148-.381 8.885-.565 2.735-.135 17.004-.143 19.774-.012 4.754.226 7.55.398 9.422.58 1.058.103 2.402.221 2.986.263 1.256.09 3.239.474 3.983.77.291.115.708.37.927.567.389.35.445.36 2.442.445 1.646.07 2.144.136 2.555.339.559.275.593.344.339.68-.352.465-2.088.708-6.03.843-2.027.07-4.432.162-5.344.204-.912.043-6.825.098-13.138.123-6.394.025-12.42.107-13.603.186-1.489.098-8.247.115-22.626.054-21.988-.092-20.54-.122-23.738.483-.391.075-1.197.212-1.791.306-.594.094-1.826.294-2.738.445-.913.15-2.167.354-2.787.451-.62.098-1.845.3-2.72.45-.877.15-1.907.305-2.29.344-.676.068-.696.06-.696-.254 0-.29.096-.352.895-.582 1.198-.346 2.489-.669 3.218-.806 1.074-.202 1.162-.238 1.236-.511.072-.267.053-.269-1.411-.18-1.567.094-2.523-.042-2.657-.38-.05-.124.065-.224.351-.306.85-.246 4.152-.54 8.851-.79 4.73-.251 6.158-.37 7.698-.639 1.55-.27 3.667-.53 6.303-.772.803-.074 2.326-.218 3.384-.32a97.533 97.533 0 0 1 3.185-.257c.694-.039 2.276-.154 3.517-.256 4.528-.374 7.345-.588 9.408-.714 1.16-.07 2.154-.156 2.21-.189ZM7.517 5.025c1.562-.035 2.877-.129 3.317-.236.897-.218 3.53-.26 3.658-.058.05.078-.021.25-.158.381-.196.19-.663.284-2.21.448-1.08.113-2.333.182-2.787.153-.745-.049-3.455.257-4.806.541-.292.062-1.236.184-2.097.27-1.388.142-1.59.137-1.774-.041-.115-.11-.167-.265-.117-.344.347-.542 3.43-1.035 6.974-1.114ZM9.18 8.29a37.204 37.204 0 0 1 2.053-.63c.95-.248 1.934-.312 2.048-.133.16.25-.44.643-1.385.908-.547.153-1.264.363-1.592.467-.329.103-.986.217-1.46.253-.859.064-1.734.255-3.252.708-3.072.918-3.988 1.14-4.71 1.14-.43 0-.82-.06-.866-.132-.12-.187.43-.591 1.13-.833C2.533 9.56 6.42 8.697 7.19 8.695c.556 0 1.165-.124 1.99-.405Z" fill="#E5F43B"/></svg>