<svg width="182" height="182" viewBox="0 0 182 182" fill="none" xmlns="http://www.w3.org/2000/svg">
<path d="M75.518 32.2291H106.482C116.865 32.2291 125.092 32.229 131.662 32.8973C138.394 33.5821 144.013 35.0152 148.929 38.2997C152.862 40.9278 156.239 44.3047 158.867 48.2379C160.739 51.0399 162.01 54.0706 162.883 57.4056C163.475 59.6636 163.77 60.7925 163.087 61.6775C162.404 62.5625 161.152 62.5625 158.649 62.5625H23.3514C20.8477 62.5625 19.5959 62.5625 18.9128 61.6775C18.2298 60.7925 18.5254 59.6636 19.1168 57.4056C19.9902 54.0706 21.2609 51.0399 23.1331 48.2379C25.7611 44.3047 29.1381 40.9278 33.0712 38.2997C37.9869 35.0152 43.6064 33.5821 50.3377 32.8973C56.9076 32.229 65.1348 32.2291 75.518 32.2291Z" fill="white"/>
<path d="M113.75 106.167C109.562 106.167 106.167 109.562 106.167 113.75C106.167 117.938 109.562 121.333 113.75 121.333C117.938 121.333 121.333 117.938 121.333 113.75C121.333 109.562 117.938 106.167 113.75 106.167Z" fill="white"/>
<path d="M127.843 119.367C127.484 120.266 127.948 121.333 128.917 121.333C133.105 121.333 136.5 117.938 136.5 113.75C136.5 109.562 133.105 106.167 128.917 106.167C127.948 106.167 127.484 107.234 127.843 108.133C128.536 109.87 128.917 111.766 128.917 113.75C128.917 115.734 128.536 117.63 127.843 119.367Z" fill="white"/>
<path fill-rule="evenodd" clip-rule="evenodd" d="M21.6242 73.9375C19.5353 73.9375 18.4908 73.9375 17.8266 74.5921C17.1623 75.2467 17.1472 76.2794 17.117 78.3447C17.0624 82.0792 17.0625 86.1788 17.0625 90.6845V91.3153C17.0624 101.698 17.0624 109.926 17.7307 116.496C18.4155 123.227 19.8486 128.846 23.1331 133.762C25.7611 137.695 29.1381 141.072 33.0712 143.7C37.9869 146.985 43.6064 148.418 50.3377 149.103C56.9076 149.771 65.1347 149.771 75.5179 149.771H106.482C116.865 149.771 125.092 149.771 131.662 149.103C138.394 148.418 144.013 146.985 148.929 143.7C152.862 141.072 156.239 137.695 158.867 133.762C162.151 128.846 163.585 123.227 164.269 116.496C164.938 109.926 164.938 101.698 164.938 91.3151V90.6848C164.938 86.179 164.938 82.0793 164.883 78.3447C164.853 76.2794 164.838 75.2467 164.173 74.5921C163.509 73.9375 162.465 73.9375 160.376 73.9375H21.6242ZM98.5833 113.75C98.5833 105.374 105.374 98.5833 113.75 98.5833C115.578 98.5833 117.33 98.9065 118.952 99.4989C120.271 99.9807 120.931 100.222 121.333 100.222C121.736 100.222 122.395 99.9807 123.715 99.4989C125.337 98.9065 127.089 98.5833 128.917 98.5833C137.293 98.5833 144.083 105.374 144.083 113.75C144.083 122.126 137.293 128.917 128.917 128.917C127.089 128.917 125.337 128.593 123.715 128.001C122.395 127.519 121.736 127.278 121.333 127.278C120.931 127.278 120.271 127.519 118.952 128.001C117.33 128.593 115.578 128.917 113.75 128.917C105.374 128.917 98.5833 122.126 98.5833 113.75Z" fill="white"/>
<mask id="path-2-outside-1_284_24194" maskUnits="userSpaceOnUse" x="94.918" y="95.9143" width="80" height="80" fill="black">
<rect fill="white" x="94.918" y="95.9143" width="80" height="80"/>
<path fill-rule="evenodd" clip-rule="evenodd" d="M121.692 105.914H147.34C157.369 105.914 164.085 112.955 164.085 123.428V147.6C164.085 158.043 157.369 165.081 147.34 165.081H121.692C111.663 165.081 104.918 158.043 104.918 147.6V123.428C104.918 112.955 111.663 105.914 121.692 105.914ZM143.406 144.373C144.412 143.37 144.412 141.743 143.406 140.737L138.14 135.471L143.406 130.202C144.412 129.199 144.412 127.543 143.406 126.537C142.4 125.528 140.773 125.528 139.738 126.537L134.501 131.8L129.235 126.537C128.2 125.528 126.573 125.528 125.567 126.537C124.561 127.543 124.561 129.199 125.567 130.202L130.833 135.471L125.567 140.707C124.561 141.743 124.561 143.37 125.567 144.373C126.07 144.876 126.75 145.145 127.401 145.145C128.082 145.145 128.733 144.876 129.235 144.373L134.501 139.139L139.767 144.373C140.27 144.908 140.921 145.145 141.572 145.145C142.252 145.145 142.903 144.876 143.406 144.373Z"/>
</mask>
<path fill-rule="evenodd" clip-rule="evenodd" d="M121.692 105.914H147.34C157.369 105.914 164.085 112.955 164.085 123.428V147.6C164.085 158.043 157.369 165.081 147.34 165.081H121.692C111.663 165.081 104.918 158.043 104.918 147.6V123.428C104.918 112.955 111.663 105.914 121.692 105.914ZM143.406 144.373C144.412 143.37 144.412 141.743 143.406 140.737L138.14 135.471L143.406 130.202C144.412 129.199 144.412 127.543 143.406 126.537C142.4 125.528 140.773 125.528 139.738 126.537L134.501 131.8L129.235 126.537C128.2 125.528 126.573 125.528 125.567 126.537C124.561 127.543 124.561 129.199 125.567 130.202L130.833 135.471L125.567 140.707C124.561 141.743 124.561 143.37 125.567 144.373C126.07 144.876 126.75 145.145 127.401 145.145C128.082 145.145 128.733 144.876 129.235 144.373L134.501 139.139L139.767 144.373C140.27 144.908 140.921 145.145 141.572 145.145C142.252 145.145 142.903 144.876 143.406 144.373Z" fill="#F43B67"/>
<path d="M143.406 144.373L136.345 137.291L136.34 137.296L136.335 137.302L143.406 144.373ZM138.14 135.471L131.067 128.402L124 135.473L131.069 142.542L138.14 135.471ZM143.406 130.202L136.345 123.121L136.339 123.127L136.333 123.133L143.406 130.202ZM143.406 126.537L136.324 133.598L136.33 133.603L136.335 133.608L143.406 126.537ZM139.738 126.537L132.759 119.374L132.703 119.429L132.649 119.484L139.738 126.537ZM134.501 131.8L127.432 138.873L134.521 145.958L141.59 138.853L134.501 131.8ZM129.235 126.537L136.305 119.464L136.259 119.419L136.214 119.374L129.235 126.537ZM125.567 126.537L132.638 133.608L132.643 133.603L132.649 133.598L125.567 126.537ZM125.567 130.202L132.64 123.133L132.634 123.127L132.628 123.121L125.567 130.202ZM130.833 135.471L137.884 142.562L144.993 135.493L137.906 128.402L130.833 135.471ZM125.567 140.707L118.516 133.616L118.455 133.677L118.394 133.739L125.567 140.707ZM125.567 144.373L132.638 137.302L132.633 137.296L132.628 137.291L125.567 144.373ZM129.235 144.373L122.186 137.28L122.175 137.291L122.164 137.302L129.235 144.373ZM134.501 139.139L141.55 132.046L134.501 125.041L127.452 132.046L134.501 139.139ZM139.767 144.373L147.056 137.527L146.938 137.401L146.816 137.28L139.767 144.373ZM147.34 95.9143H121.692V115.914H147.34V95.9143ZM174.085 123.428C174.085 116.036 171.683 109.047 166.704 103.836C161.686 98.5838 154.785 95.9143 147.34 95.9143V115.914C149.925 115.914 151.396 116.765 152.243 117.652C153.129 118.579 154.085 120.347 154.085 123.428H174.085ZM174.085 147.6V123.428H154.085V147.6H174.085ZM147.34 175.081C154.783 175.081 161.682 172.414 166.699 167.17C171.678 161.966 174.085 154.984 174.085 147.6H154.085C154.085 150.659 153.133 152.418 152.248 153.343C151.4 154.229 149.927 155.081 147.34 155.081V175.081ZM121.692 175.081H147.34V155.081H121.692V175.081ZM94.918 147.6C94.918 154.997 97.3394 161.979 102.327 167.179C107.35 172.415 114.251 175.081 121.692 175.081V155.081C119.103 155.081 117.618 154.228 116.761 153.334C115.869 152.405 114.918 150.647 114.918 147.6H94.918ZM94.918 123.428V147.6H114.918V123.428H94.918ZM121.692 95.9143C114.25 95.9143 107.346 98.5821 102.322 103.827C97.3348 109.034 94.918 116.024 94.918 123.428H114.918C114.918 120.359 115.874 118.592 116.766 117.661C117.622 116.767 119.105 115.914 121.692 115.914V95.9143ZM136.335 147.808C133.441 144.914 133.426 140.202 136.345 137.291L150.467 151.454C155.397 146.538 155.382 138.571 150.477 133.666L136.335 147.808ZM131.069 142.542L136.335 147.808L150.477 133.666L145.211 128.4L131.069 142.542ZM136.333 123.133L131.067 128.402L145.213 142.54L150.479 137.271L136.333 123.133ZM136.335 133.608C133.441 130.714 133.426 126.031 136.345 123.121L150.467 137.284C155.397 132.367 155.382 124.371 150.477 119.466L136.335 133.608ZM146.716 133.699C143.926 136.418 139.282 136.564 136.324 133.598L150.487 119.476C145.518 114.492 137.62 114.638 132.759 119.374L146.716 133.699ZM141.59 138.853L146.827 133.59L132.649 119.484L127.412 124.747L141.59 138.853ZM122.166 133.61L127.432 138.873L141.57 124.727L136.305 119.464L122.166 133.61ZM132.649 133.598C129.691 136.564 125.048 136.418 122.257 133.699L136.214 119.374C131.353 114.638 123.455 114.492 118.486 119.476L132.649 133.598ZM132.628 123.121C135.547 126.031 135.532 130.714 132.638 133.608L118.496 119.466C113.591 124.371 113.576 132.367 118.506 137.284L132.628 123.121ZM137.906 128.402L132.64 123.133L118.494 137.271L123.76 142.54L137.906 128.402ZM132.618 147.798L137.884 142.562L123.782 128.38L118.516 133.616L132.618 147.798ZM132.628 137.291C135.602 140.257 135.442 144.893 132.74 147.675L118.394 133.739C113.68 138.592 113.52 146.482 118.506 151.454L132.628 137.291ZM127.401 135.145C129.401 135.145 131.265 135.928 132.638 137.302L118.496 151.444C120.875 153.823 124.099 155.145 127.401 155.145V135.145ZM122.164 137.302C123.495 135.971 125.37 135.145 127.401 135.145V155.145C130.793 155.145 133.97 153.78 136.307 151.444L122.164 137.302ZM127.452 132.046L122.186 137.28L136.285 151.466L141.55 146.232L127.452 132.046ZM146.816 137.28L141.55 132.046L127.452 146.232L132.718 151.466L146.816 137.28ZM141.572 135.145C143.407 135.145 145.489 135.857 147.056 137.527L132.478 151.219C135.052 153.959 138.435 155.145 141.572 155.145V135.145ZM136.335 137.302C137.665 135.971 139.541 135.145 141.572 135.145V155.145C144.963 155.145 148.141 153.78 150.477 151.444L136.335 137.302Z" fill="black" mask="url(#path-2-outside-1_284_24194)"/>
</svg>
