<svg width="16" height="17" viewBox="0 0 16 17" fill="none" xmlns="http://www.w3.org/2000/svg">
<g clip-path="url(#clip0_373_722)">
<path d="M8.02321 0.206263V0.214144C8.03109 0.253553 8.03109 0.300844 8.03109 0.348134V6.03089C8.02321 6.06242 7.99957 6.0703 7.97592 6.08607C7.8104 6.16488 7.65277 6.23582 7.48725 6.30676C7.25868 6.40922 7.02223 6.51956 6.79365 6.62203L5.96607 7.00035C5.7375 7.10281 5.50892 7.20528 5.28824 7.30774C5.02025 7.43385 4.74439 7.55208 4.47641 7.67818C4.24784 7.78065 4.01927 7.89099 3.78282 7.99345C3.59365 8.08015 3.40449 8.15897 3.22321 8.24567C3.20745 8.25355 3.19168 8.26144 3.17592 8.26144C3.16804 8.26144 3.16804 8.26144 3.16016 8.25355L3.37296 7.89887C3.78282 7.22104 4.18479 6.55109 4.59464 5.87326C5.02814 5.14813 5.46952 4.42301 5.90301 3.69789C6.30498 3.02794 6.71484 2.35799 7.11681 1.68804C7.40843 1.19937 7.70794 0.710696 7.99957 0.222026C8.00745 0.206263 8.01533 0.198381 8.01533 0.182617H8.02321C8.01533 0.190499 8.02321 0.198381 8.02321 0.206263Z" fill="#8A92B2"/>
<path d="M12.863 8.25343L12.8709 8.26131L11.7122 8.94702L8.07087 11.0987C8.0551 11.1066 8.03934 11.1145 8.03146 11.1224C8.00781 11.1224 8.00781 11.0987 8.00781 11.0909V11.0199V6.14899C8.00781 6.12535 8.00781 6.09382 8.01569 6.07018C8.02358 6.03865 8.04722 6.04653 8.07087 6.05441C8.17333 6.1017 8.28367 6.14899 8.38614 6.19628C8.69353 6.33816 9.00092 6.48003 9.30831 6.61402C9.57629 6.73225 9.83638 6.85835 10.1044 6.97658C10.3723 7.09481 10.6403 7.22092 10.9083 7.33914C11.1369 7.4416 11.3733 7.55195 11.6019 7.65441C11.8305 7.75688 12.0669 7.86722 12.2955 7.96968C12.4768 8.0485 12.6581 8.1352 12.8393 8.21402C12.8393 8.23766 12.8472 8.24554 12.863 8.25343Z" fill="#454A75"/>
<path d="M8.02321 16.017C8.02321 16.0248 8.01533 16.0327 8.01533 16.0406H8.00745C8.00745 16.0248 7.99168 16.017 7.9838 16.0012C7.49513 15.3155 7.00646 14.6219 6.51779 13.9362C6.02124 13.2347 5.51681 12.5253 5.02025 11.8238C4.53947 11.146 4.0508 10.4603 3.57001 9.78247C3.4439 9.60119 3.31779 9.42779 3.19168 9.24651C3.1838 9.23075 3.17592 9.22286 3.16016 9.19922C3.1838 9.19922 3.19957 9.21498 3.20745 9.22286C3.89316 9.62483 4.57099 10.0268 5.25671 10.4288C6.04489 10.8938 6.82518 11.3588 7.61336 11.8238L8.01533 12.0603C8.03109 12.0761 8.03109 12.0918 8.03109 12.1076V15.9066C8.03109 15.946 8.03109 15.9854 8.02321 16.017Z" fill="#8A92B2"/>
<path d="M3.15234 8.26953V8.26165C3.40456 8.15131 3.6489 8.03308 3.90111 7.92274C4.22426 7.77298 4.54742 7.63111 4.87057 7.48136C5.1149 7.37101 5.36712 7.25279 5.61146 7.14244C5.97402 6.97692 6.3287 6.81929 6.69126 6.65377C6.93559 6.54343 7.17993 6.43308 7.43215 6.31486C7.60554 6.23604 7.78683 6.15722 7.96022 6.0784C7.97599 6.07052 7.99963 6.06264 8.00751 6.04688C8.0154 6.04688 8.0154 6.05476 8.00751 6.06264V11.0676C8.00751 11.0912 7.99963 11.1149 8.0154 11.1306C7.99963 11.1543 7.98387 11.1306 7.97599 11.1227C7.90505 11.0833 7.83412 11.0439 7.76318 10.9966C6.242 10.0981 4.71293 9.1917 3.19175 8.29318C3.18387 8.2853 3.16811 8.27742 3.15234 8.26953Z" fill="#62688F"/>
<path d="M12.8472 9.19922H12.855C12.855 9.21498 12.8393 9.23075 12.8314 9.24651C11.3811 11.2879 9.9309 13.3372 8.48065 15.3785C8.3309 15.5913 8.17326 15.8041 8.02351 16.017C8.01563 16.0091 8.01562 16.0012 8.01562 15.9933V15.946V12.1234V12.0524C8.34666 11.8554 8.66981 11.6662 9.00085 11.4692C10.2777 10.7125 11.5545 9.96375 12.8235 9.2071C12.8314 9.21498 12.8393 9.2071 12.8472 9.19922Z" fill="#62688F"/>
<path d="M8.01576 6.06263V6.04687V5.99958V0.27741C8.01576 0.253764 8.00788 0.238001 8.02365 0.214355C9.62365 2.87051 11.2236 5.51879 12.8158 8.17495C12.8315 8.19859 12.8552 8.23012 12.8631 8.26165C12.7527 8.22224 12.6502 8.16707 12.5478 8.11978C12.4217 8.0646 12.2877 8.00155 12.1616 7.94638C12.0828 7.90697 11.9961 7.87544 11.9172 7.83603C11.7833 7.77298 11.6493 7.71781 11.5153 7.65475C11.4365 7.62322 11.3576 7.58382 11.2788 7.54441L10.7586 7.30795C10.6719 7.26854 10.5852 7.22913 10.4906 7.18973L10.1123 7.02421C10.0335 6.99268 9.95468 6.95327 9.87586 6.91386L9.35567 6.67741C9.26897 6.638 9.18227 6.59859 9.08768 6.55918L8.70936 6.39367C8.62266 6.35426 8.54384 6.31485 8.45714 6.27544C8.30739 6.2045 8.15764 6.13357 8 6.07051C8.02365 6.06263 8.01576 6.06263 8.01576 6.06263Z" fill="#62688F"/>
</g>
<defs>
<clipPath id="clip0_373_722">
<rect width="16" height="16" fill="white" transform="translate(0 0.119629)"/>
</clipPath>
</defs>
</svg>
