<svg width="26" height="22" viewBox="0 0 26 22" fill="none" xmlns="http://www.w3.org/2000/svg">
<path d="M10.2779 0.666626H15.7221C17.5477 0.666615 18.9943 0.666606 20.1494 0.784115C21.3329 0.904512 22.321 1.15648 23.1853 1.73399C23.8768 2.19606 24.4706 2.78981 24.9326 3.48135C25.2618 3.97401 25.4852 4.50689 25.6388 5.09326C25.7428 5.49026 25.7948 5.68876 25.6747 5.84436C25.5546 5.99996 25.3345 5.99996 24.8943 5.99996H1.10573C0.665528 5.99996 0.445425 5.99996 0.325329 5.84436C0.205233 5.68876 0.257218 5.49026 0.36119 5.09326C0.514756 4.50689 0.738172 3.97401 1.06736 3.48135C1.52943 2.78981 2.12319 2.19606 2.81472 1.73399C3.67902 1.15648 4.66707 0.904512 5.85059 0.784115C7.00573 0.666606 8.45228 0.666615 10.2779 0.666626Z" fill="black"/>
<path d="M17 13.6666C16.2636 13.6666 15.6667 14.2636 15.6667 15C15.6667 15.7363 16.2636 16.3333 17 16.3333C17.7364 16.3333 18.3333 15.7363 18.3333 15C18.3333 14.2636 17.7364 13.6666 17 13.6666Z" fill="black"/>
<path d="M19.4778 15.9875C19.4147 16.1457 19.4964 16.3333 19.6667 16.3333C20.4031 16.3333 21 15.7363 21 15C21 14.2636 20.4031 13.6666 19.6667 13.6666C19.4964 13.6666 19.4147 13.8542 19.4778 14.0124C19.5997 14.3178 19.6667 14.6511 19.6667 15C19.6667 15.3489 19.5997 15.6821 19.4778 15.9875Z" fill="black"/>
<path fill-rule="evenodd" clip-rule="evenodd" d="M0.802057 7.99996C0.434777 7.99996 0.251137 7.99996 0.134344 8.11506C0.017552 8.23015 0.0148977 8.41172 0.00958926 8.77486C-9.20333e-06 9.43147 -4.71276e-06 10.1523 2.23129e-07 10.9445V11.0554C-1.11515e-05 12.881 -2.01662e-05 14.3276 0.117489 15.4827C0.237886 16.6662 0.489858 17.6543 1.06736 18.5186C1.52943 19.2101 2.12319 19.8039 2.81472 20.2659C3.67902 20.8434 4.66707 21.0954 5.85059 21.2158C7.00573 21.3333 8.45226 21.3333 10.2779 21.3333H15.7221C17.5477 21.3333 18.9943 21.3333 20.1494 21.2158C21.3329 21.0954 22.321 20.8434 23.1853 20.2659C23.8768 19.8039 24.4706 19.2101 24.9326 18.5186C25.5101 17.6543 25.7621 16.6662 25.8825 15.4827C26 14.3275 26 12.881 26 11.0554V10.9445C26 10.1523 26 9.43148 25.9904 8.77486C25.9851 8.41172 25.9824 8.23015 25.8657 8.11506C25.7489 7.99996 25.5652 7.99996 25.1979 7.99996H0.802057ZM14.3333 15C14.3333 13.5272 15.5272 12.3333 17 12.3333C17.3213 12.3333 17.6294 12.3901 17.9146 12.4943C18.1466 12.579 18.2626 12.6213 18.3333 12.6213C18.4041 12.6213 18.5201 12.579 18.752 12.4943C19.0373 12.3901 19.3453 12.3333 19.6667 12.3333C21.1394 12.3333 22.3333 13.5272 22.3333 15C22.3333 16.4727 21.1394 17.6666 19.6667 17.6666C19.3453 17.6666 19.0373 17.6098 18.752 17.5056C18.5201 17.4209 18.4041 17.3786 18.3333 17.3786C18.2626 17.3786 18.1466 17.4209 17.9146 17.5056C17.6294 17.6098 17.3213 17.6666 17 17.6666C15.5272 17.6666 14.3333 16.4727 14.3333 15Z" fill="black"/>
</svg>
