<svg width="244" height="8" fill="none" xmlns="http://www.w3.org/2000/svg"><path d="M132.872.488c.217-.043 11.115-.277 19.186-.411 5.904-.098 36.715-.104 42.697-.008 10.266.164 16.304.29 20.345.421 2.285.075 5.187.161 6.448.192 2.711.066 6.994.344 8.601.56.628.083 1.528.269 2.001.412.84.254.962.262 5.273.323 3.553.051 4.629.1 5.516.247 1.209.2 1.282.25.732.495-.759.338-4.507.514-13.019.613-4.377.05-9.57.117-11.54.148-1.97.031-14.736.071-28.369.09-13.807.018-26.818.078-29.372.135-3.215.071-17.808.083-48.858.04-47.478-.068-44.35-.09-51.255.35-.846.055-2.587.155-3.869.223-1.281.068-3.942.214-5.912.323-1.97.11-4.678.258-6.018.329-1.34.07-3.983.218-5.874.327-1.891.11-4.116.222-4.943.25-1.46.05-1.505.044-1.505-.185 0-.21.21-.256 1.935-.423 2.586-.251 5.373-.486 6.949-.586 2.319-.147 2.508-.173 2.668-.372.156-.194.115-.195-3.048-.131-3.383.069-5.447-.03-5.736-.276-.106-.09.14-.163.758-.223 1.833-.178 8.965-.393 19.112-.574 10.212-.183 13.296-.27 16.62-.465 3.348-.197 7.92-.386 13.612-.562 1.734-.053 5.022-.158 7.307-.233 2.285-.074 5.38-.158 6.877-.186 1.498-.028 4.915-.112 7.594-.186 9.778-.272 15.86-.428 20.314-.52 2.505-.05 4.653-.113 4.773-.137ZM16.23 3.652c3.373-.025 6.213-.093 7.165-.171 1.936-.159 7.62-.19 7.898-.042.107.056-.047.18-.342.277-.423.138-1.431.206-4.773.325-2.33.083-5.037.133-6.017.112-1.608-.036-7.46.186-10.378.393-.63.045-2.668.134-4.528.197-2.997.103-3.433.1-3.83-.03-.248-.08-.361-.193-.253-.25.75-.395 7.407-.753 15.059-.81ZM19.824 6.027c1.412-.162 3.406-.368 4.43-.458 2.05-.18 4.176-.227 4.424-.097.345.182-.949.468-2.99.66-1.183.112-2.73.265-3.44.34-.709.075-2.127.158-3.152.184-1.853.047-3.744.185-7.02.515C5.442 7.84 3.464 8 1.903 8 .976 8 .136 7.957.035 7.904c-.258-.136.927-.43 2.441-.606 2.991-.347 11.385-.975 13.05-.976 1.2 0 2.515-.091 4.298-.295Z" fill="#E5F43B"/></svg>