<svg width="113" height="12" fill="none" xmlns="http://www.w3.org/2000/svg"><path d="M61.535.874c.1-.06 5.148-.381 8.885-.566C73.155.174 87.424.165 90.194.297c4.754.226 7.55.398 9.422.58 1.058.102 2.402.22 2.986.263 1.256.09 3.239.474 3.983.77.291.115.708.37.927.567.389.35.445.36 2.442.444 1.646.07 2.144.137 2.555.34.559.275.593.344.339.68-.352.465-2.088.708-6.03.843-2.027.07-4.432.161-5.344.204-.912.042-6.825.098-13.138.122-6.394.026-12.42.108-13.603.187-1.489.098-8.247.114-22.626.054-21.988-.093-20.54-.122-23.738.483a76.12 76.12 0 0 1-1.791.306c-.594.094-1.826.294-2.738.445-.913.15-2.167.353-2.787.45-.62.098-1.845.301-2.72.451-.877.15-1.907.305-2.29.343-.676.068-.696.06-.696-.254 0-.288.096-.351.895-.582 1.198-.345 2.489-.668 3.218-.805 1.074-.202 1.162-.238 1.236-.511.072-.267.053-.27-1.411-.18-1.567.094-2.523-.043-2.657-.38-.05-.124.065-.224.351-.307.85-.245 4.152-.54 8.851-.79 4.73-.25 6.158-.37 7.698-.638 1.55-.271 3.667-.53 6.303-.772.803-.074 2.326-.218 3.384-.321a97.505 97.505 0 0 1 3.185-.257c.694-.038 2.276-.153 3.517-.256 4.528-.373 7.345-.587 9.408-.713 1.16-.07 2.154-.156 2.21-.19ZM7.517 5.224c1.562-.035 2.877-.128 3.317-.235.897-.218 3.53-.26 3.658-.058.05.077-.021.249-.158.381-.196.19-.663.284-2.21.447-1.08.114-2.333.183-2.787.153-.745-.048-3.455.257-4.806.542-.292.061-1.236.183-2.097.27-1.388.141-1.59.137-1.774-.042-.115-.11-.167-.265-.117-.343.347-.543 3.43-1.035 6.974-1.115ZM9.18 8.49a37.214 37.214 0 0 1 2.053-.63c.95-.248 1.934-.313 2.048-.134.16.25-.44.644-1.385.909-.547.153-1.264.363-1.592.467-.329.103-.986.217-1.46.252-.859.065-1.734.256-3.252.709-3.072.918-3.988 1.14-4.71 1.14-.43 0-.82-.06-.866-.132-.12-.187.43-.592 1.13-.833C2.533 9.76 6.42 8.896 7.19 8.895c.556 0 1.165-.125 1.99-.405Z" fill="#97F43B"/></svg>