<svg width="175" height="5" fill="none" xmlns="http://www.w3.org/2000/svg"><path d="M133.864.4c4.524-.129 8.27-.279 8.324-.332.211-.205 24.759.097 27.152.335 4.87.484 7.406 2.068 4.295 2.683-.569.113-7.541.26-15.691.332-8.066.07-16.94.215-19.72.32-2.779.106-12.01.288-20.512.404-8.502.117-20.186.36-25.963.541-11.924.374-37.769.43-47.07.101-20.333-.717-19.135-.637-19.33-1.28-.07-.232-.073-.48-.005-.551.307-.32 8.484-.456 24.687-.409 24.79.073 32.396-.039 46.871-.687 2.398-.107 6.813-.287 9.81-.4a1796.7 1796.7 0 0 0 12.189-.512 1074.5 1074.5 0 0 1 14.963-.544ZM.144 3.606c-.34-.487-.123-.677 1.158-1.01.995-.257 4.049-.273 13.154-.068.872.02 2.566-.036 3.765-.122 1.689-.122 2.357-.091 2.962.136.974.367 1.102.709.374 1.002-.884.357-6.581.503-7.933.204-.943-.21-2.024-.192-6.006.096-5.378.388-7.074.334-7.474-.238Z" fill="#E5F43B"/></svg>