<svg width="236" height="8" fill="none" xmlns="http://www.w3.org/2000/svg"><path d="M218.921.574c3.037-.116 6.329-.264 9.321-.419 2.921-.15 6.022-.2 7.056-.111.83.07.789.417-.065.54-.777.114-.825.24-.141.377.278.056.633.177.788.27.253.15.165.183-.836.32-1.371.188-6.156.392-11.851.506-2.349.048-5.146.123-6.214.168-1.733.073-5.77.165-18.125.41-2.065.041-5.269.113-7.12.16s-6.803.124-11.004.17c-4.201.046-9.27.14-11.264.209-1.993.068-4.965.152-6.602.186-2.049.043 2.41.081 14.295.124 9.501.034 17.627.084 18.06.111.61.04.787.094.787.245 0 .134-.182.208-.582.238-1.857.138-17.618.337-36.056.455-23.066.148-34.066.246-38.062.342-2.136.05-13.904.116-26.151.144-12.247.028-22.39.076-22.54.108-.15.03-1.548.096-3.107.146-1.56.049-3.709.127-4.777.175-2.224.098-6.989.27-12.428.446a495.2 495.2 0 0 0-5.438.202c-.925.044-3.232.123-5.125.174-3.108.085-3.506.08-4.112-.046-.527-.11-.594-.155-.312-.212.573-.116 2.828-.304 4.37-.364.784-.03 2.066-.104 2.85-.165.782-.06 2.184-.133 3.114-.162 1.596-.05 3.09-.205 2.012-.209-.242 0-.534-.047-.648-.104-.794-.396-3.367-.41-10.94-.06-2.588.119-3.885.103-4.069-.05-.242-.2.434-.353 1.99-.449 4.423-.271 8.984-.52 13.59-.737l5.307-.255c1.79-.089 6.718-.285 10.357-.414l5.696-.201c5.191-.184 8.4-.281 13.724-.416 2.634-.067 5.78-.157 6.99-.2 1.21-.043 3.774-.1 5.697-.129a443.76 443.76 0 0 0 5.955-.128c1.353-.042 4.848-.114 7.768-.16 2.919-.045 7.172-.12 9.451-.167 8.688-.178 28.444-.33 43.183-.33 29.476-.004 41.492-.133 50.547-.54 1.567-.071 3.664-.16 4.661-.198Z" fill="#E5F43B"/><path d="M199.766 3.87c.241-.084.687-.169.992-.188 1.56-.097 4.958-.045 6.948.108a62.17 62.17 0 0 0 3.846.165c2.149 0 7.59.214 8.224.322.265.045.64.143.833.217.295.113.292.147-.021.216-.856.188-10.775-.14-12.326-.409-.357-.061-1.886-.095-4.199-.093-2.237.002-3.848-.032-4.185-.09-.518-.088-.524-.102-.112-.247ZM21.62 5.067c1.424-.123 3.289-.25 4.143-.285 2.454-.097 3.104-.091 3.62.029.46.107.45.12-.232.262-1.082.226-6.081.537-9.861.614-1.971.04-4.507.154-6.12.276-1.514.115-3.32.235-4.013.268-.693.032-1.54.092-1.881.133C6.123 6.5 1.455 6.613.7 6.52.315 6.475 0 6.405 0 6.367c0-.194 4.417-.603 7.768-.719.925-.032 2.44-.113 3.366-.181.925-.068 3.081-.136 4.79-.15 2.374-.02 3.718-.079 5.696-.25ZM25.763 6.366c1.14-.095 2.363-.188 2.719-.207.356-.019 1.421-.04 2.367-.046 1.388-.009 1.752.016 1.886.127.091.075.074.162-.037.193-.696.191-8.678.66-11.241.66-1.17 0-2.966.07-4.18.165-1.172.091-2.887.22-3.813.286l-4.045.289c-3.781.27-6.714.202-5.367-.124.784-.19 3.733-.522 5.399-.608a996.12 996.12 0 0 0 4.66-.26c1.71-.1 4.564-.208 6.344-.242 1.82-.034 4.143-.136 5.308-.233Z" fill="#E5F43B"/></svg>