<svg width="334" height="7" fill="none" xmlns="http://www.w3.org/2000/svg"><path d="M262.768 1.377c7.767-.156 14.198-.337 14.292-.4.361-.249 42.511.116 46.619.403 8.362.584 12.716 2.494 7.375 3.236-.978.136-12.948.314-26.941.4-13.85.086-29.086.26-33.859.387-4.772.127-20.621.346-35.22.487-14.598.14-34.658.434-44.577.652-20.475.45-64.849.518-80.818.122-34.912-.865-32.855-.769-33.19-1.543-.121-.28-.125-.58-.008-.666.527-.386 14.567-.55 42.385-.492 42.566.087 55.625-.047 80.478-.83 4.118-.129 11.698-.346 16.844-.481 5.147-.135 14.565-.414 20.928-.618 6.363-.205 17.925-.5 25.692-.657ZM1.125 4.79c-.35-.627-.127-.871 1.189-1.298 1.021-.332 4.157-.353 13.506-.09.896.026 2.636-.045 3.867-.156 1.734-.157 2.42-.117 3.041.175 1 .472 1.132.912.384 1.29-.908.459-6.757.647-8.146.262-.968-.27-2.077-.247-6.167.123-5.522.499-7.264.43-7.674-.306ZM42.544 4.79c-.257-.627-.093-.871.872-1.298.75-.332 3.049-.353 9.905-.09.657.026 1.933-.045 2.836-.156 1.271-.157 1.774-.117 2.23.175.734.472.83.912.282 1.29-.666.459-4.956.647-5.975.262-.71-.27-1.523-.247-4.522.123-4.05.499-5.327.43-5.628-.306Z" fill="#E5F43B"/></svg>