<svg width="161" height="10" fill="none" xmlns="http://www.w3.org/2000/svg"><path d="M127.295 1.013A971.924 971.924 0 0 0 154.1.223c3.08-.133 5.694-.234 5.808-.222.343.035.902.905 1.041 1.62.186.96-.05 1.097-2.182 1.277-1.141.097-2.216.29-3.046.546-.706.218-1.447.396-1.646.396-.2 0-.929.087-1.621.193-2.388.367-10.675.854-20.858 1.224-1.197.044-3.204.163-4.459.264-1.255.102-3.355.223-4.667.27a91.66 91.66 0 0 0-3.827.214c-3.66.326-11.056.43-31.432.443-25.093.017-38.66.238-50.089.816-5.18.262-7.804.439-10.06.678-1.648.175-4.976.491-9.851.938-1.14.104-3.1.286-4.356.404-5.913.555-12.597.882-12.839.63-.213-.225 1.685-.667 4.025-.938 3.456-.4 6.326-.676 7.985-.769a55.127 55.127 0 0 0 4.21-.409c.454-.063.473-.115.417-1.128-.033-.584.011-1.108.098-1.164.274-.178 6.457-.566 13.63-.857 5.274-.213 17.934-.398 27.482-.402 5.937-.002 9.152-.061 11.304-.208 1.654-.112 4.267-.291 5.807-.397 1.54-.106 3.36-.224 4.044-.261 1.72-.095 7.471-.462 9.852-.629 1.084-.076 3.137-.191 4.563-.257 1.426-.065 4.18-.212 6.119-.325 4.9-.286 11.122-.588 15.647-.757 2.104-.08 3.902-.175 3.995-.212.093-.038 3.739-.122 8.101-.188Z" fill="#E5F43B"/></svg>