<svg width="257" height="20" fill="none" xmlns="http://www.w3.org/2000/svg"><path d="M200.573 1.046c32.228.521 45.918.487 50.944-.129 2.58-.315 3.256-.182 4.01.794l.609.787-.751.545c-.722.524-.934.55-5.505.693-14.972.468-24.019.7-38.481.985-4.06.08-10.704.26-14.765.4s-9.142.297-11.291.348c-2.15.051-5.212.173-6.804.272-1.593.1-5.382.255-8.421.347-3.038.091-7.012.254-8.831.36-1.818.108-5.326.273-7.794.369-10.446.403-22.921 1.1-29.826 1.663-2.356.193-4.992.384-11.005.797a769.76 769.76 0 0 0-6.372.475c-1.991.157-4.793.37-6.227.473-2.876.208-6.306.46-10.715.79-1.593.119-4.59.332-6.661.474-4.522.31-8.403.6-11.73.88-1.354.113-4.221.318-6.371.456-2.15.138-5.018.346-6.372.463-1.354.117-3.57.295-4.923.395-5.225.387-10.016.805-10.543.92-.302.067-1.931.24-3.62.384-4.82.412-8.934.825-9.512.956-.292.065-1.895.25-3.563.411-1.668.16-3.685.38-4.482.487-.796.107-3.078.385-5.07.616-1.991.231-4.143.501-4.78.6-1.979.307-8.87.992-9.891.984-.828-.006-.97-.082-.967-.51.003-.413.326-.602 1.817-1.064a129.18 129.18 0 0 0 2.394-.76c.32-.11 1.233-.331 2.03-.491.797-.16 2.363-.483 3.479-.716a95.098 95.098 0 0 1 4.058-.737c4.608-.711 7.37-1.113 9.562-1.39 1.275-.162 3.753-.482 5.506-.712 1.752-.23 4.388-.54 5.858-.69 1.469-.148 3.359-.364 4.2-.481.842-.117 3.485-.396 5.875-.622 2.39-.226 5.583-.533 7.097-.683a142.19 142.19 0 0 1 4.634-.383c1.035-.06 3.25-.234 4.924-.386 3.455-.314 7.149-.597 12.598-.968 2.07-.14 4.808-.348 6.082-.461 1.275-.114 4.859-.386 7.965-.605 3.106-.22 7.276-.523 9.267-.676 1.991-.152 4.402-.324 5.358-.38.956-.058 3.367-.23 5.358-.384 4.316-.334 8.022-.598 13.358-.952 2.17-.143 4.516-.315 5.213-.38 2.045-.194 17.959-.9 25.01-1.11 3.319-.099 3.896-.161 3.186-.345-1.25-.325-30.164-.667-39.795-.471-4.379.089-11.414.28-15.634.423-13.235.45-19.382.292-18.329-.47.329-.237 5.942-.687 10.67-.855 1.75-.062 4.031-.198 5.067-.3 1.035-.104 4.358-.307 7.384-.452 19.326-.926 35.151-1.168 51.528-.787 7.004.163 26.799.524 43.99.803ZM54.54 3.31c2.145-.23 5.203-.54 6.796-.69 3.57-.336 11.769-.262 11.933.109.061.139-.182.365-.542.503-1.105.425-16.314 1.492-24.29 1.704-2.786.074-6.239.274-7.673.443-1.434.17-4.498.49-6.808.712-12.778 1.229-25.32 1.542-24.017.6.323-.232 6.027-1.113 8.537-1.317 1.434-.117 4.757-.295 7.384-.396 2.628-.101 5.43-.269 6.227-.372.796-.103 3.012-.28 4.923-.393 1.911-.113 3.69-.25 3.953-.303.262-.055 2.547-.118 5.077-.14 2.722-.025 6.191-.212 8.5-.46Z" fill="#E5F43B"/></svg>